# 3ds Max Wavefront OBJ Exporter v0.97b - (c)2007 guruware
# File Created: 05.01.2018 11:54:47

mtllib wall.mtl

#
# object Plane001
#

v  -7.2063 0.0000 3.6031
v  -7.2063 0.0000 7.2063
v  -3.6031 0.0000 3.6031
v  -3.6031 0.0000 7.2063
v  0.0000 0.0000 3.6031
v  0.0000 0.0000 7.2063
v  3.6031 0.0000 3.6031
v  3.6031 0.0000 7.2063
v  7.2063 0.0000 3.6031
v  7.2063 0.0000 7.2063
v  -7.2063 0.0000 -0.0000
v  -3.6031 0.0000 -0.0000
v  0.0000 0.0000 -0.0000
v  3.6031 0.0000 -0.0000
v  7.2063 0.0000 -0.0000
v  -7.2063 0.0000 -3.6031
v  -3.6031 0.0000 -3.6031
v  0.0000 0.0000 -3.6031
v  3.6031 0.0000 -3.6031
v  7.2063 0.0000 -3.6031
v  -7.2063 0.0000 -7.2063
v  -3.6031 0.0000 -7.2063
v  0.0000 0.0000 -7.2063
v  3.6031 0.0000 -7.2063
v  7.2063 0.0000 -7.2063
# 25 vertices

vn 0.0000 1.0000 -0.0000
# 1 vertex normals

vt 0.0000 0.2500 0.0000
vt 0.0000 0.0000 0.0000
vt 0.2500 0.2500 0.0000
vt 0.2500 0.0000 0.0000
vt 0.5000 0.2500 0.0000
vt 0.5000 0.0000 0.0000
vt 0.7500 0.2500 0.0000
vt 0.7500 0.0000 0.0000
vt 1.0000 0.2500 0.0000
vt 1.0000 0.0000 0.0000
vt 0.0000 0.5000 0.0000
vt 0.2500 0.5000 0.0000
vt 0.5000 0.5000 0.0000
vt 0.7500 0.5000 0.0000
vt 1.0000 0.5000 0.0000
vt 0.0000 0.7500 0.0000
vt 0.2500 0.7500 0.0000
vt 0.5000 0.7500 0.0000
vt 0.7500 0.7500 0.0000
vt 1.0000 0.7500 0.0000
vt 0.0000 1.0000 0.0000
vt 0.2500 1.0000 0.0000
vt 0.5000 1.0000 0.0000
vt 0.7500 1.0000 0.0000
vt 1.0000 1.0000 0.0000
# 25 texture coords

o Plane001
g Plane001
usemtl 01___Default
s 1
f 1/1/1 2/2/1 3/3/1 
f 4/4/1 3/3/1 2/2/1 
f 3/3/1 4/4/1 5/5/1 
f 6/6/1 5/5/1 4/4/1 
f 5/5/1 6/6/1 7/7/1 
f 8/8/1 7/7/1 6/6/1 
f 7/7/1 8/8/1 9/9/1 
f 10/10/1 9/9/1 8/8/1 
f 11/11/1 1/1/1 12/12/1 
f 3/3/1 12/12/1 1/1/1 
f 12/12/1 3/3/1 13/13/1 
f 5/5/1 13/13/1 3/3/1 
f 13/13/1 5/5/1 14/14/1 
f 7/7/1 14/14/1 5/5/1 
f 14/14/1 7/7/1 15/15/1 
f 9/9/1 15/15/1 7/7/1 
f 16/16/1 11/11/1 17/17/1 
f 12/12/1 17/17/1 11/11/1 
f 17/17/1 12/12/1 18/18/1 
f 13/13/1 18/18/1 12/12/1 
f 18/18/1 13/13/1 19/19/1 
f 14/14/1 19/19/1 13/13/1 
f 19/19/1 14/14/1 20/20/1 
f 15/15/1 20/20/1 14/14/1 
f 21/21/1 16/16/1 22/22/1 
f 17/17/1 22/22/1 16/16/1 
f 22/22/1 17/17/1 23/23/1 
f 18/18/1 23/23/1 17/17/1 
f 23/23/1 18/18/1 24/24/1 
f 19/19/1 24/24/1 18/18/1 
f 24/24/1 19/19/1 25/25/1 
f 20/20/1 25/25/1 19/19/1 
# 32 faces

#
# object Box001
#

v  -7.2515 0.0000 7.0408
v  -7.2515 0.0000 -7.0408
v  7.2515 0.0000 -7.0408
v  7.2515 0.0000 7.0408
v  -7.2515 31.4961 7.0408
v  7.2515 31.4961 7.0408
v  7.2515 31.4961 -7.0408
v  -7.2515 31.4961 -7.0408
# 8 vertices

vn 0.0000 -1.0000 -0.0000
vn 0.0000 1.0000 -0.0000
vn 0.0000 0.0000 1.0000
vn 1.0000 0.0000 -0.0000
vn 0.0000 0.0000 -1.0000
vn -1.0000 0.0000 -0.0000
# 6 vertex normals

vt 1.0000 0.0000 0.0000
vt 1.0000 1.0000 0.0000
vt 0.0000 1.0000 0.0000
vt 0.0000 0.0000 0.0000
# 4 texture coords

o Box001
g Box001
usemtl 02___Default
s 2
f 26/26/2 27/27/2 28/28/2 
f 28/28/2 29/29/2 26/26/2 
s 4
f 30/29/3 31/26/3 32/27/3 
f 32/27/3 33/28/3 30/29/3 
s 8
f 26/29/4 29/26/4 31/27/4 
f 31/27/4 30/28/4 26/29/4 
s 16
f 29/29/5 28/26/5 32/27/5 
f 32/27/5 31/28/5 29/29/5 
s 32
f 28/29/6 27/26/6 33/27/6 
f 33/27/6 32/28/6 28/29/6 
s 64
f 27/29/7 26/26/7 30/27/7 
f 30/27/7 33/28/7 27/29/7 
# 12 faces

